# xmcd CD database file
#
# Track frame offsets:
#	187
#	19562
#	38007
#	58777
#	79405
#	94340
#	111832
#	130547
#	150675
#	169387
#
# Disc length: 2540 seconds
#
# Revision: 3
# Processed by: cddbd v1.5.1PL0 Copyright (c) Steve Scherf et al.
# Submitted via: CDex 1.51
#
DISCID=7b09ea0a
DTITLE=Loudness - Hurricane Eyes
DYEAR=1987
DGENRE=Heavy Metal
TTITLE0=S.D.I.
TTITLE1=This Lonely Heart
TTITLE2=Rock 'n Roll Gypsy
TTITLE3=In My Dreams
TTITLE4=Take Me Home
TTITLE5=Strike Of The Sword
TTITLE6=Rock This Way
TTITLE7=In This World Beyond
TTITLE8=Hungry Hunter
TTITLE9=So Lonely
EXTD=YEAR: 1987
EXTT0=
EXTT1=
EXTT2=
EXTT3=
EXTT4=
EXTT5=
EXTT6=
EXTT7=
EXTT8=
EXTT9=
PLAYORDER=
